%TF.GenerationSoftware,KiCad,Pcbnew,9.0.3-1.fc42*%
%TF.CreationDate,2025-11-28T05:18:47+00:00*%
%TF.ProjectId,qfp_1mm_44_pin,7166705f-316d-46d5-9f34-345f70696e2e,rev?*%
%TF.SameCoordinates,Original*%
%TF.FileFunction,Paste,Top*%
%TF.FilePolarity,Positive*%
%FSLAX46Y46*%
G04 Gerber Fmt 4.6, Leading zero omitted, Abs format (unit mm)*
G04 Created by KiCad (PCBNEW 9.0.3-1.fc42) date 2025-11-28 05:18:47*
%MOMM*%
%LPD*%
G01*
G04 APERTURE LIST*
G04 Aperture macros list*
%AMRoundRect*
0 Rectangle with rounded corners*
0 $1 Rounding radius*
0 $2 $3 $4 $5 $6 $7 $8 $9 X,Y pos of 4 corners*
0 Add a 4 corners polygon primitive as box body*
4,1,4,$2,$3,$4,$5,$6,$7,$8,$9,$2,$3,0*
0 Add four circle primitives for the rounded corners*
1,1,$1+$1,$2,$3*
1,1,$1+$1,$4,$5*
1,1,$1+$1,$6,$7*
1,1,$1+$1,$8,$9*
0 Add four rect primitives between the rounded corners*
20,1,$1+$1,$2,$3,$4,$5,0*
20,1,$1+$1,$4,$5,$6,$7,0*
20,1,$1+$1,$6,$7,$8,$9,0*
20,1,$1+$1,$8,$9,$2,$3,0*%
G04 Aperture macros list end*
%ADD10RoundRect,0.105000X-1.395000X-0.245000X1.395000X-0.245000X1.395000X0.245000X-1.395000X0.245000X0*%
%ADD11RoundRect,0.105000X0.245000X-1.395000X0.245000X1.395000X-0.245000X1.395000X-0.245000X-1.395000X0*%
%ADD12RoundRect,0.105000X1.395000X0.245000X-1.395000X0.245000X-1.395000X-0.245000X1.395000X-0.245000X0*%
%ADD13RoundRect,0.105000X-0.245000X1.395000X-0.245000X-1.395000X0.245000X-1.395000X0.245000X1.395000X0*%
%ADD14RoundRect,0.250000X-0.350000X-0.450000X0.350000X-0.450000X0.350000X0.450000X-0.350000X0.450000X0*%
G04 APERTURE END LIST*
D10*
%TO.C,U2*%
X173275000Y-84100000D03*
X173275000Y-83100000D03*
X173275000Y-82100000D03*
X173275000Y-81100000D03*
X173275000Y-80100000D03*
X173275000Y-79100000D03*
X173275000Y-78100000D03*
X173275000Y-77100000D03*
X173275000Y-76100000D03*
X173275000Y-75100000D03*
X173275000Y-74100000D03*
D11*
X168900000Y-69725000D03*
X167900000Y-69725000D03*
X166900000Y-69725000D03*
X165900000Y-69725000D03*
X164900000Y-69725000D03*
X163900000Y-69725000D03*
X162900000Y-69725000D03*
X161900000Y-69725000D03*
X160900000Y-69725000D03*
X159900000Y-69725000D03*
X158900000Y-69725000D03*
D12*
X154525000Y-74100000D03*
X154525000Y-75100000D03*
X154525000Y-76100000D03*
X154525000Y-77100000D03*
X154525000Y-78100000D03*
X154525000Y-79100000D03*
X154525000Y-80100000D03*
X154525000Y-81100000D03*
X154525000Y-82100000D03*
X154525000Y-83100000D03*
X154525000Y-84100000D03*
D13*
X158900000Y-88475000D03*
X159900000Y-88475000D03*
X160900000Y-88475000D03*
X161900000Y-88475000D03*
X162900000Y-88475000D03*
X163900000Y-88475000D03*
X164900000Y-88475000D03*
X165900000Y-88475000D03*
X166900000Y-88475000D03*
X167900000Y-88475000D03*
X168900000Y-88475000D03*
%TD*%
D14*
%TO.C,R8*%
X80613000Y-78740000D03*
X78613000Y-78740000D03*
%TD*%
%TO.C,R1*%
X80883000Y-55880000D03*
X78883000Y-55880000D03*
%TD*%
%TO.C,R5*%
X80867000Y-68580000D03*
X78867000Y-68580000D03*
%TD*%
%TO.C,R6*%
X80867000Y-71120000D03*
X78867000Y-71120000D03*
%TD*%
%TO.C,R7*%
X80613000Y-76200000D03*
X78613000Y-76200000D03*
%TD*%
%TO.C,R2*%
X80883000Y-58547000D03*
X78883000Y-58547000D03*
%TD*%
%TO.C,R3*%
X80867000Y-63500000D03*
X78867000Y-63500000D03*
%TD*%
%TO.C,R4*%
X80867000Y-66040000D03*
X78867000Y-66040000D03*
%TD*%
M02*
