%TF.GenerationSoftware,KiCad,Pcbnew,9.0.3-1.fc42*%
%TF.CreationDate,2025-11-28T05:18:48+00:00*%
%TF.ProjectId,qfp_1mm_44_pin,7166705f-316d-46d5-9f34-345f70696e2e,rev?*%
%TF.SameCoordinates,Original*%
%TF.FileFunction,Soldermask,Bot*%
%TF.FilePolarity,Negative*%
%FSLAX46Y46*%
G04 Gerber Fmt 4.6, Leading zero omitted, Abs format (unit mm)*
G04 Created by KiCad (PCBNEW 9.0.3-1.fc42) date 2025-11-28 05:18:48*
%MOMM*%
%LPD*%
G01*
G04 APERTURE LIST*
%ADD10O,1.700000X1.700000*%
%ADD11R,1.700000X1.700000*%
%ADD12O,1.500000X1.500000*%
%ADD13O,1.800000X1.800000*%
%ADD14C,1.700000*%
G04 APERTURE END LIST*
D10*
%TO.C,U1*%
X96630000Y-103920000D03*
D11*
X94090000Y-103920000D03*
D10*
X91550000Y-103920000D03*
X102980000Y-55890000D03*
X102980000Y-58430000D03*
D11*
X102980000Y-60970000D03*
D10*
X102980000Y-63510000D03*
X102980000Y-66050000D03*
X102980000Y-68590000D03*
X102980000Y-71130000D03*
D11*
X102980000Y-73670000D03*
D10*
X102980000Y-76210000D03*
X102980000Y-78750000D03*
X102980000Y-81290000D03*
X102980000Y-83830000D03*
D11*
X102980000Y-86370000D03*
D10*
X102980000Y-88910000D03*
X102980000Y-91450000D03*
X102980000Y-93990000D03*
X102980000Y-96530000D03*
D11*
X102980000Y-99070000D03*
D10*
X102980000Y-101610000D03*
X102980000Y-104150000D03*
X85200000Y-104150000D03*
X85200000Y-101610000D03*
D11*
X85200000Y-99070000D03*
D10*
X85200000Y-96530000D03*
X85200000Y-93990000D03*
X85200000Y-91450000D03*
X85200000Y-88910000D03*
D11*
X85200000Y-86370000D03*
D10*
X85200000Y-83830000D03*
X85200000Y-81290000D03*
X85200000Y-78750000D03*
X85200000Y-76210000D03*
D11*
X85200000Y-73670000D03*
D10*
X85200000Y-71130000D03*
X85200000Y-68590000D03*
X85200000Y-66050000D03*
X85200000Y-63510000D03*
D11*
X85200000Y-60970000D03*
D10*
X85200000Y-58430000D03*
X85200000Y-55890000D03*
D12*
X96515000Y-59050000D03*
X91665000Y-59050000D03*
D13*
X91365000Y-56020000D03*
X96815000Y-56020000D03*
%TD*%
D11*
%TO.C,J6*%
X111890000Y-69080000D03*
D14*
X111890000Y-71620000D03*
X111890000Y-74160000D03*
X111890000Y-76700000D03*
X111890000Y-79240000D03*
%TD*%
D11*
%TO.C,J5*%
X116480000Y-69080000D03*
D14*
X116480000Y-71620000D03*
X116480000Y-74160000D03*
X116480000Y-76700000D03*
%TD*%
D11*
%TO.C,J4*%
X140210000Y-53960000D03*
D14*
X140210000Y-56500000D03*
X140210000Y-59040000D03*
X140210000Y-61580000D03*
X140210000Y-64120000D03*
X140210000Y-66660000D03*
X140210000Y-69200000D03*
X140210000Y-71740000D03*
X140210000Y-74280000D03*
X140210000Y-76820000D03*
X140210000Y-79360000D03*
X140210000Y-81900000D03*
X140210000Y-84440000D03*
X140210000Y-86980000D03*
X140210000Y-89520000D03*
X140210000Y-92060000D03*
X140210000Y-94600000D03*
X140210000Y-97140000D03*
X140210000Y-99680000D03*
X140210000Y-102220000D03*
X140210000Y-104760000D03*
X140210000Y-107300000D03*
%TD*%
D11*
%TO.C,J3*%
X135620000Y-53960000D03*
D14*
X135620000Y-56500000D03*
X135620000Y-59040000D03*
X135620000Y-61580000D03*
X135620000Y-64120000D03*
X135620000Y-66660000D03*
X135620000Y-69200000D03*
X135620000Y-71740000D03*
X135620000Y-74280000D03*
X135620000Y-76820000D03*
X135620000Y-79360000D03*
X135620000Y-81900000D03*
X135620000Y-84440000D03*
X135620000Y-86980000D03*
X135620000Y-89520000D03*
X135620000Y-92060000D03*
X135620000Y-94600000D03*
X135620000Y-97140000D03*
X135620000Y-99680000D03*
X135620000Y-102220000D03*
X135620000Y-104760000D03*
X135620000Y-107300000D03*
%TD*%
D11*
%TO.C,J2*%
X125520000Y-53900000D03*
D14*
X125520000Y-56440000D03*
X125520000Y-58980000D03*
X125520000Y-61520000D03*
X125520000Y-64060000D03*
X125520000Y-66600000D03*
X125520000Y-69140000D03*
X125520000Y-71680000D03*
X125520000Y-74220000D03*
X125520000Y-76760000D03*
X125520000Y-79300000D03*
X125520000Y-81840000D03*
X125520000Y-84380000D03*
X125520000Y-86920000D03*
X125520000Y-89460000D03*
X125520000Y-92000000D03*
X125520000Y-94540000D03*
X125520000Y-97080000D03*
X125520000Y-99620000D03*
X125520000Y-102160000D03*
X125520000Y-104700000D03*
X125520000Y-107240000D03*
%TD*%
D11*
%TO.C,J1*%
X120930000Y-53900000D03*
D14*
X120930000Y-56440000D03*
X120930000Y-58980000D03*
X120930000Y-61520000D03*
X120930000Y-64060000D03*
X120930000Y-66600000D03*
X120930000Y-69140000D03*
X120930000Y-71680000D03*
X120930000Y-74220000D03*
X120930000Y-76760000D03*
X120930000Y-79300000D03*
X120930000Y-81840000D03*
X120930000Y-84380000D03*
X120930000Y-86920000D03*
X120930000Y-89460000D03*
X120930000Y-92000000D03*
X120930000Y-94540000D03*
X120930000Y-97080000D03*
X120930000Y-99620000D03*
X120930000Y-102160000D03*
X120930000Y-104700000D03*
X120930000Y-107240000D03*
%TD*%
M02*
