%TF.GenerationSoftware,KiCad,Pcbnew,9.0.3-1.fc42*%
%TF.CreationDate,2025-11-28T05:18:47+00:00*%
%TF.ProjectId,qfp_1mm_44_pin,7166705f-316d-46d5-9f34-345f70696e2e,rev?*%
%TF.SameCoordinates,Original*%
%TF.FileFunction,Copper,L1,Top*%
%TF.FilePolarity,Positive*%
%FSLAX46Y46*%
G04 Gerber Fmt 4.6, Leading zero omitted, Abs format (unit mm)*
G04 Created by KiCad (PCBNEW 9.0.3-1.fc42) date 2025-11-28 05:18:47*
%MOMM*%
%LPD*%
G01*
G04 APERTURE LIST*
G04 Aperture macros list*
%AMRoundRect*
0 Rectangle with rounded corners*
0 $1 Rounding radius*
0 $2 $3 $4 $5 $6 $7 $8 $9 X,Y pos of 4 corners*
0 Add a 4 corners polygon primitive as box body*
4,1,4,$2,$3,$4,$5,$6,$7,$8,$9,$2,$3,0*
0 Add four circle primitives for the rounded corners*
1,1,$1+$1,$2,$3*
1,1,$1+$1,$4,$5*
1,1,$1+$1,$6,$7*
1,1,$1+$1,$8,$9*
0 Add four rect primitives between the rounded corners*
20,1,$1+$1,$2,$3,$4,$5,0*
20,1,$1+$1,$4,$5,$6,$7,0*
20,1,$1+$1,$6,$7,$8,$9,0*
20,1,$1+$1,$8,$9,$2,$3,0*%
G04 Aperture macros list end*
%TA.AperFunction,SMDPad,CuDef*%
%ADD10RoundRect,0.105000X-1.395000X-0.245000X1.395000X-0.245000X1.395000X0.245000X-1.395000X0.245000X0*%
%TD*%
%TA.AperFunction,SMDPad,CuDef*%
%ADD11RoundRect,0.105000X0.245000X-1.395000X0.245000X1.395000X-0.245000X1.395000X-0.245000X-1.395000X0*%
%TD*%
%TA.AperFunction,SMDPad,CuDef*%
%ADD12RoundRect,0.105000X1.395000X0.245000X-1.395000X0.245000X-1.395000X-0.245000X1.395000X-0.245000X0*%
%TD*%
%TA.AperFunction,SMDPad,CuDef*%
%ADD13RoundRect,0.105000X-0.245000X1.395000X-0.245000X-1.395000X0.245000X-1.395000X0.245000X1.395000X0*%
%TD*%
%TA.AperFunction,SMDPad,CuDef*%
%ADD14R,1.700000X3.500000*%
%TD*%
%TA.AperFunction,ComponentPad*%
%ADD15O,1.700000X1.700000*%
%TD*%
%TA.AperFunction,ComponentPad*%
%ADD16R,1.700000X1.700000*%
%TD*%
%TA.AperFunction,SMDPad,CuDef*%
%ADD17R,3.500000X1.700000*%
%TD*%
%TA.AperFunction,SMDPad,CuDef*%
%ADD18RoundRect,0.250000X-0.350000X-0.450000X0.350000X-0.450000X0.350000X0.450000X-0.350000X0.450000X0*%
%TD*%
%TA.AperFunction,ComponentPad*%
%ADD19C,1.700000*%
%TD*%
%TA.AperFunction,ViaPad*%
%ADD20C,0.800000*%
%TD*%
%TA.AperFunction,ViaPad*%
%ADD21C,0.600000*%
%TD*%
%TA.AperFunction,Conductor*%
%ADD22C,0.400000*%
%TD*%
G04 APERTURE END LIST*
D10*
%TO.P,U2,1,D6*%
%TO.N,D6*%
X173275000Y-84100000D03*
%TO.P,U2,2,nc*%
%TO.N,Net-(J3-Pin_21)*%
X173275000Y-83100000D03*
%TO.P,U2,3,D7*%
%TO.N,D7*%
X173275000Y-82100000D03*
%TO.P,U2,4,/RD_/CE*%
%TO.N,CE*%
X173275000Y-81100000D03*
%TO.P,U2,5,nc*%
%TO.N,Net-(J3-Pin_18)*%
X173275000Y-80100000D03*
%TO.P,U2,6,A10*%
%TO.N,A10*%
X173275000Y-79100000D03*
%TO.P,U2,7,nc*%
%TO.N,Net-(J3-Pin_16)*%
X173275000Y-78100000D03*
%TO.P,U2,8,/OE*%
%TO.N,OE*%
X173275000Y-77100000D03*
%TO.P,U2,9,A11*%
%TO.N,A11*%
X173275000Y-76100000D03*
%TO.P,U2,10,nc*%
%TO.N,Net-(J3-Pin_13)*%
X173275000Y-75100000D03*
%TO.P,U2,11,A9*%
%TO.N,A9*%
X173275000Y-74100000D03*
D11*
%TO.P,U2,12,A8*%
%TO.N,A8*%
X168900000Y-69725000D03*
%TO.P,U2,13,A13*%
%TO.N,A13*%
X167900000Y-69725000D03*
%TO.P,U2,14,A8_(2)*%
%TO.N,A8*%
X166900000Y-69725000D03*
%TO.P,U2,15,A14*%
%TO.N,A14*%
X165900000Y-69725000D03*
%TO.P,U2,16,VCC*%
%TO.N,+5V*%
X164900000Y-69725000D03*
%TO.P,U2,17,A11*%
%TO.N,A11*%
X163900000Y-69725000D03*
%TO.P,U2,18,/CS?*%
%TO.N,CSB*%
X162900000Y-69725000D03*
%TO.P,U2,19,/CS?*%
%TO.N,CSA*%
X161900000Y-69725000D03*
%TO.P,U2,20,A12*%
%TO.N,A12*%
X160900000Y-69725000D03*
%TO.P,U2,21,A7*%
%TO.N,A7*%
X159900000Y-69725000D03*
%TO.P,U2,22,A12_(2)*%
%TO.N,A12*%
X158900000Y-69725000D03*
D12*
%TO.P,U2,23,A6*%
%TO.N,A6*%
X154525000Y-74100000D03*
%TO.P,U2,24,A5*%
%TO.N,A5*%
X154525000Y-75100000D03*
%TO.P,U2,25,A4*%
%TO.N,A4*%
X154525000Y-76100000D03*
%TO.P,U2,26,nc*%
%TO.N,Net-(J1-Pin_4)*%
X154525000Y-77100000D03*
%TO.P,U2,27,A3*%
%TO.N,A3*%
X154525000Y-78100000D03*
%TO.P,U2,28,nc*%
%TO.N,Net-(J1-Pin_6)*%
X154525000Y-79100000D03*
%TO.P,U2,29,A2*%
%TO.N,A2*%
X154525000Y-80100000D03*
%TO.P,U2,30,A1*%
%TO.N,A1*%
X154525000Y-81100000D03*
%TO.P,U2,31,nc*%
%TO.N,Net-(J1-Pin_9)*%
X154525000Y-82100000D03*
%TO.P,U2,32,A0*%
%TO.N,A0*%
X154525000Y-83100000D03*
%TO.P,U2,33,nc*%
%TO.N,Net-(J1-Pin_11)*%
X154525000Y-84100000D03*
D13*
%TO.P,U2,34,D0*%
%TO.N,D0*%
X158900000Y-88475000D03*
%TO.P,U2,35,D2*%
%TO.N,D2*%
X159900000Y-88475000D03*
%TO.P,U2,36,D1*%
%TO.N,D1*%
X160900000Y-88475000D03*
%TO.P,U2,37,D2*%
%TO.N,D2*%
X161900000Y-88475000D03*
%TO.P,U2,38,GND*%
%TO.N,GND*%
X162900000Y-88475000D03*
%TO.P,U2,39,nc*%
%TO.N,Net-(J1-Pin_17)*%
X163900000Y-88475000D03*
%TO.P,U2,40,D3*%
%TO.N,D3*%
X164900000Y-88475000D03*
%TO.P,U2,41,/CE3?*%
%TO.N,CE3*%
X165900000Y-88475000D03*
%TO.P,U2,42,D4*%
%TO.N,D4*%
X166900000Y-88475000D03*
%TO.P,U2,43,D5*%
%TO.N,D5*%
X167900000Y-88475000D03*
%TO.P,U2,44,D5(2)*%
X168900000Y-88475000D03*
%TD*%
D14*
%TO.P,U1,43,SWDIO*%
%TO.N,unconnected-(U1-SWDIO-Pad43)*%
X96630000Y-104820000D03*
D15*
X96630000Y-103920000D03*
D14*
%TO.P,U1,42,GND*%
%TO.N,unconnected-(U1-GND-Pad42)*%
X94090000Y-104820000D03*
D16*
X94090000Y-103920000D03*
D15*
%TO.P,U1,41,SWCLK*%
%TO.N,unconnected-(U1-SWCLK-Pad41)*%
X91550000Y-103920000D03*
D14*
X91550000Y-104820000D03*
D17*
%TO.P,U1,40,VBUS*%
%TO.N,unconnected-(U1-VBUS-Pad40)*%
X103880000Y-55890000D03*
D15*
X102980000Y-55890000D03*
%TO.P,U1,39,VSYS*%
%TO.N,+5V*%
X102980000Y-58430000D03*
D17*
X103880000Y-58430000D03*
D16*
%TO.P,U1,38,GND*%
%TO.N,GND*%
X102980000Y-60970000D03*
D17*
X103880000Y-60970000D03*
D15*
%TO.P,U1,37,3V3_EN*%
%TO.N,unconnected-(U1-3V3_EN-Pad37)*%
X102980000Y-63510000D03*
D17*
X103880000Y-63510000D03*
%TO.P,U1,36,3V3*%
%TO.N,unconnected-(U1-3V3-Pad36)*%
X103880000Y-66050000D03*
D15*
X102980000Y-66050000D03*
%TO.P,U1,35,ADC_VREF*%
%TO.N,unconnected-(U1-ADC_VREF-Pad35)*%
X102980000Y-68590000D03*
D17*
X103880000Y-68590000D03*
D15*
%TO.P,U1,34,GPIO28_ADC2*%
%TO.N,Net-(J5-Pin_2)*%
X102980000Y-71130000D03*
D17*
X103880000Y-71130000D03*
D16*
%TO.P,U1,33,AGND*%
%TO.N,GND*%
X102980000Y-73670000D03*
D17*
X103880000Y-73670000D03*
%TO.P,U1,32,GPIO27_ADC1*%
%TO.N,Net-(J5-Pin_3)*%
X103880000Y-76210000D03*
D15*
X102980000Y-76210000D03*
D17*
%TO.P,U1,31,GPIO26_ADC0*%
%TO.N,Net-(J5-Pin_4)*%
X103880000Y-78750000D03*
D15*
X102980000Y-78750000D03*
%TO.P,U1,30,RUN*%
%TO.N,unconnected-(U1-RUN-Pad30)*%
X102980000Y-81290000D03*
D17*
X103880000Y-81290000D03*
%TO.P,U1,29,GPIO22*%
%TO.N,A14*%
X103880000Y-83830000D03*
D15*
X102980000Y-83830000D03*
D17*
%TO.P,U1,28,GND*%
%TO.N,GND*%
X103880000Y-86370000D03*
D16*
X102980000Y-86370000D03*
D17*
%TO.P,U1,27,GPIO21*%
%TO.N,A13*%
X103880000Y-88910000D03*
D15*
X102980000Y-88910000D03*
%TO.P,U1,26,GPIO20*%
%TO.N,A12*%
X102980000Y-91450000D03*
D17*
X103880000Y-91450000D03*
D15*
%TO.P,U1,25,GPIO19*%
%TO.N,A11*%
X102980000Y-93990000D03*
D17*
X103880000Y-93990000D03*
%TO.P,U1,24,GPIO18*%
%TO.N,A10*%
X103880000Y-96530000D03*
D15*
X102980000Y-96530000D03*
D16*
%TO.P,U1,23,GND*%
%TO.N,GND*%
X102980000Y-99070000D03*
D17*
X103880000Y-99070000D03*
D15*
%TO.P,U1,22,GPIO17*%
%TO.N,A9*%
X102980000Y-101610000D03*
D17*
X103880000Y-101610000D03*
D15*
%TO.P,U1,21,GPIO16*%
%TO.N,A8*%
X102980000Y-104150000D03*
D17*
X103880000Y-104150000D03*
D15*
%TO.P,U1,20,GPIO15*%
%TO.N,A7*%
X85200000Y-104150000D03*
D17*
X84300000Y-104150000D03*
%TO.P,U1,19,GPIO14*%
%TO.N,A6*%
X84300000Y-101610000D03*
D15*
X85200000Y-101610000D03*
D16*
%TO.P,U1,18,GND*%
%TO.N,GND*%
X85200000Y-99070000D03*
D17*
X84300000Y-99070000D03*
D15*
%TO.P,U1,17,GPIO13*%
%TO.N,A5*%
X85200000Y-96530000D03*
D17*
X84300000Y-96530000D03*
D15*
%TO.P,U1,16,GPIO12*%
%TO.N,A4*%
X85200000Y-93990000D03*
D17*
X84300000Y-93990000D03*
%TO.P,U1,15,GPIO11*%
%TO.N,A3*%
X84300000Y-91450000D03*
D15*
X85200000Y-91450000D03*
%TO.P,U1,14,GPIO10*%
%TO.N,A2*%
X85200000Y-88910000D03*
D17*
X84300000Y-88910000D03*
%TO.P,U1,13,GND*%
%TO.N,GND*%
X84300000Y-86370000D03*
D16*
X85200000Y-86370000D03*
D17*
%TO.P,U1,12,GPIO9*%
%TO.N,A1*%
X84300000Y-83830000D03*
D15*
X85200000Y-83830000D03*
%TO.P,U1,11,GPIO8*%
%TO.N,A0*%
X85200000Y-81290000D03*
D17*
X84300000Y-81290000D03*
%TO.P,U1,10,GPIO7*%
%TO.N,Net-(U1-GPIO7)*%
X84300000Y-78750000D03*
D15*
X85200000Y-78750000D03*
%TO.P,U1,9,GPIO6*%
%TO.N,Net-(U1-GPIO6)*%
X85200000Y-76210000D03*
D17*
X84300000Y-76210000D03*
%TO.P,U1,8,GND*%
%TO.N,GND*%
X84300000Y-73670000D03*
D16*
X85200000Y-73670000D03*
D15*
%TO.P,U1,7,GPIO5*%
%TO.N,Net-(U1-GPIO5)*%
X85200000Y-71130000D03*
D17*
X84300000Y-71130000D03*
%TO.P,U1,6,GPIO4*%
%TO.N,Net-(U1-GPIO4)*%
X84300000Y-68590000D03*
D15*
X85200000Y-68590000D03*
D17*
%TO.P,U1,5,GPIO3*%
%TO.N,Net-(U1-GPIO3)*%
X84300000Y-66050000D03*
D15*
X85200000Y-66050000D03*
D17*
%TO.P,U1,4,GPIO2*%
%TO.N,Net-(U1-GPIO2)*%
X84300000Y-63510000D03*
D15*
X85200000Y-63510000D03*
D16*
%TO.P,U1,3,GND*%
%TO.N,GND*%
X85200000Y-60970000D03*
D17*
X84300000Y-60970000D03*
%TO.P,U1,2,GPIO1*%
%TO.N,Net-(U1-GPIO1)*%
X84300000Y-58430000D03*
D15*
X85200000Y-58430000D03*
D17*
%TO.P,U1,1,GPIO0*%
%TO.N,Net-(U1-GPIO0)*%
X84300000Y-55890000D03*
D15*
X85200000Y-55890000D03*
%TD*%
D18*
%TO.P,R8,2*%
%TO.N,Net-(U1-GPIO7)*%
X80613000Y-78740000D03*
%TO.P,R8,1*%
%TO.N,D7*%
X78613000Y-78740000D03*
%TD*%
%TO.P,R1,2*%
%TO.N,Net-(U1-GPIO0)*%
X80883000Y-55880000D03*
%TO.P,R1,1*%
%TO.N,D0*%
X78883000Y-55880000D03*
%TD*%
%TO.P,R5,2*%
%TO.N,Net-(U1-GPIO4)*%
X80867000Y-68580000D03*
%TO.P,R5,1*%
%TO.N,D4*%
X78867000Y-68580000D03*
%TD*%
%TO.P,R6,2*%
%TO.N,Net-(U1-GPIO5)*%
X80867000Y-71120000D03*
%TO.P,R6,1*%
%TO.N,D5*%
X78867000Y-71120000D03*
%TD*%
%TO.P,R7,2*%
%TO.N,Net-(U1-GPIO6)*%
X80613000Y-76200000D03*
%TO.P,R7,1*%
%TO.N,D6*%
X78613000Y-76200000D03*
%TD*%
%TO.P,R2,2*%
%TO.N,Net-(U1-GPIO1)*%
X80883000Y-58547000D03*
%TO.P,R2,1*%
%TO.N,D1*%
X78883000Y-58547000D03*
%TD*%
%TO.P,R3,2*%
%TO.N,Net-(U1-GPIO2)*%
X80867000Y-63500000D03*
%TO.P,R3,1*%
%TO.N,D2*%
X78867000Y-63500000D03*
%TD*%
%TO.P,R4,2*%
%TO.N,Net-(U1-GPIO3)*%
X80867000Y-66040000D03*
%TO.P,R4,1*%
%TO.N,D3*%
X78867000Y-66040000D03*
%TD*%
D16*
%TO.P,J6,1,Pin_1*%
%TO.N,CSA*%
X111890000Y-69080000D03*
D19*
%TO.P,J6,2,Pin_2*%
%TO.N,CSB*%
X111890000Y-71620000D03*
%TO.P,J6,3,Pin_3*%
%TO.N,OE*%
X111890000Y-74160000D03*
%TO.P,J6,4,Pin_4*%
%TO.N,CE*%
X111890000Y-76700000D03*
%TO.P,J6,5,Pin_5*%
%TO.N,CE3*%
X111890000Y-79240000D03*
%TD*%
D16*
%TO.P,J5,1,Pin_1*%
%TO.N,unconnected-(J5-Pin_1-Pad1)*%
X116480000Y-69080000D03*
D19*
%TO.P,J5,2,Pin_2*%
%TO.N,Net-(J5-Pin_2)*%
X116480000Y-71620000D03*
%TO.P,J5,3,Pin_3*%
%TO.N,Net-(J5-Pin_3)*%
X116480000Y-74160000D03*
%TO.P,J5,4,Pin_4*%
%TO.N,Net-(J5-Pin_4)*%
X116480000Y-76700000D03*
%TD*%
D16*
%TO.P,J4,1,Pin_1*%
%TO.N,A12*%
X140210000Y-53960000D03*
D19*
%TO.P,J4,2,Pin_2*%
%TO.N,A7*%
X140210000Y-56500000D03*
%TO.P,J4,3,Pin_3*%
%TO.N,A12*%
X140210000Y-59040000D03*
%TO.P,J4,4,Pin_4*%
%TO.N,CSA*%
X140210000Y-61580000D03*
%TO.P,J4,5,Pin_5*%
%TO.N,CSB*%
X140210000Y-64120000D03*
%TO.P,J4,6,Pin_6*%
%TO.N,A11*%
X140210000Y-66660000D03*
%TO.P,J4,7,Pin_7*%
%TO.N,+5V*%
X140210000Y-69200000D03*
%TO.P,J4,8,Pin_8*%
%TO.N,A14*%
X140210000Y-71740000D03*
%TO.P,J4,9,Pin_9*%
%TO.N,A8*%
X140210000Y-74280000D03*
%TO.P,J4,10,Pin_10*%
%TO.N,A13*%
X140210000Y-76820000D03*
%TO.P,J4,11,Pin_11*%
%TO.N,A8*%
X140210000Y-79360000D03*
%TO.P,J4,12,Pin_12*%
%TO.N,A9*%
X140210000Y-81900000D03*
%TO.P,J4,13,Pin_13*%
%TO.N,Net-(J3-Pin_13)*%
X140210000Y-84440000D03*
%TO.P,J4,14,Pin_14*%
%TO.N,A11*%
X140210000Y-86980000D03*
%TO.P,J4,15,Pin_15*%
%TO.N,OE*%
X140210000Y-89520000D03*
%TO.P,J4,16,Pin_16*%
%TO.N,Net-(J3-Pin_16)*%
X140210000Y-92060000D03*
%TO.P,J4,17,Pin_17*%
%TO.N,A10*%
X140210000Y-94600000D03*
%TO.P,J4,18,Pin_18*%
%TO.N,Net-(J3-Pin_18)*%
X140210000Y-97140000D03*
%TO.P,J4,19,Pin_19*%
%TO.N,CE*%
X140210000Y-99680000D03*
%TO.P,J4,20,Pin_20*%
%TO.N,D7*%
X140210000Y-102220000D03*
%TO.P,J4,21,Pin_21*%
%TO.N,Net-(J3-Pin_21)*%
X140210000Y-104760000D03*
%TO.P,J4,22,Pin_22*%
%TO.N,D6*%
X140210000Y-107300000D03*
%TD*%
D16*
%TO.P,J3,1,Pin_1*%
%TO.N,A12*%
X135620000Y-53960000D03*
D19*
%TO.P,J3,2,Pin_2*%
%TO.N,A7*%
X135620000Y-56500000D03*
%TO.P,J3,3,Pin_3*%
%TO.N,A12*%
X135620000Y-59040000D03*
%TO.P,J3,4,Pin_4*%
%TO.N,CSA*%
X135620000Y-61580000D03*
%TO.P,J3,5,Pin_5*%
%TO.N,CSB*%
X135620000Y-64120000D03*
%TO.P,J3,6,Pin_6*%
%TO.N,A11*%
X135620000Y-66660000D03*
%TO.P,J3,7,Pin_7*%
%TO.N,+5V*%
X135620000Y-69200000D03*
%TO.P,J3,8,Pin_8*%
%TO.N,A14*%
X135620000Y-71740000D03*
%TO.P,J3,9,Pin_9*%
%TO.N,A8*%
X135620000Y-74280000D03*
%TO.P,J3,10,Pin_10*%
%TO.N,A13*%
X135620000Y-76820000D03*
%TO.P,J3,11,Pin_11*%
%TO.N,A8*%
X135620000Y-79360000D03*
%TO.P,J3,12,Pin_12*%
%TO.N,A9*%
X135620000Y-81900000D03*
%TO.P,J3,13,Pin_13*%
%TO.N,Net-(J3-Pin_13)*%
X135620000Y-84440000D03*
%TO.P,J3,14,Pin_14*%
%TO.N,A11*%
X135620000Y-86980000D03*
%TO.P,J3,15,Pin_15*%
%TO.N,OE*%
X135620000Y-89520000D03*
%TO.P,J3,16,Pin_16*%
%TO.N,Net-(J3-Pin_16)*%
X135620000Y-92060000D03*
%TO.P,J3,17,Pin_17*%
%TO.N,A10*%
X135620000Y-94600000D03*
%TO.P,J3,18,Pin_18*%
%TO.N,Net-(J3-Pin_18)*%
X135620000Y-97140000D03*
%TO.P,J3,19,Pin_19*%
%TO.N,CE*%
X135620000Y-99680000D03*
%TO.P,J3,20,Pin_20*%
%TO.N,D7*%
X135620000Y-102220000D03*
%TO.P,J3,21,Pin_21*%
%TO.N,Net-(J3-Pin_21)*%
X135620000Y-104760000D03*
%TO.P,J3,22,Pin_22*%
%TO.N,D6*%
X135620000Y-107300000D03*
%TD*%
D16*
%TO.P,J2,1,Pin_1*%
%TO.N,A6*%
X125520000Y-53900000D03*
D19*
%TO.P,J2,2,Pin_2*%
%TO.N,A5*%
X125520000Y-56440000D03*
%TO.P,J2,3,Pin_3*%
%TO.N,A4*%
X125520000Y-58980000D03*
%TO.P,J2,4,Pin_4*%
%TO.N,Net-(J1-Pin_4)*%
X125520000Y-61520000D03*
%TO.P,J2,5,Pin_5*%
%TO.N,A3*%
X125520000Y-64060000D03*
%TO.P,J2,6,Pin_6*%
%TO.N,Net-(J1-Pin_6)*%
X125520000Y-66600000D03*
%TO.P,J2,7,Pin_7*%
%TO.N,A2*%
X125520000Y-69140000D03*
%TO.P,J2,8,Pin_8*%
%TO.N,A1*%
X125520000Y-71680000D03*
%TO.P,J2,9,Pin_9*%
%TO.N,Net-(J1-Pin_9)*%
X125520000Y-74220000D03*
%TO.P,J2,10,Pin_10*%
%TO.N,A0*%
X125520000Y-76760000D03*
%TO.P,J2,11,Pin_11*%
%TO.N,Net-(J1-Pin_11)*%
X125520000Y-79300000D03*
%TO.P,J2,12,Pin_12*%
%TO.N,D0*%
X125520000Y-81840000D03*
%TO.P,J2,13,Pin_13*%
%TO.N,D2*%
X125520000Y-84380000D03*
%TO.P,J2,14,Pin_14*%
%TO.N,D1*%
X125520000Y-86920000D03*
%TO.P,J2,15,Pin_15*%
%TO.N,D2*%
X125520000Y-89460000D03*
%TO.P,J2,16,Pin_16*%
%TO.N,GND*%
X125520000Y-92000000D03*
%TO.P,J2,17,Pin_17*%
%TO.N,Net-(J1-Pin_17)*%
X125520000Y-94540000D03*
%TO.P,J2,18,Pin_18*%
%TO.N,D3*%
X125520000Y-97080000D03*
%TO.P,J2,19,Pin_19*%
%TO.N,CE3*%
X125520000Y-99620000D03*
%TO.P,J2,20,Pin_20*%
%TO.N,D4*%
X125520000Y-102160000D03*
%TO.P,J2,21,Pin_21*%
%TO.N,D5*%
X125520000Y-104700000D03*
%TO.P,J2,22,Pin_22*%
X125520000Y-107240000D03*
%TD*%
D16*
%TO.P,J1,1,Pin_1*%
%TO.N,A6*%
X120930000Y-53900000D03*
D19*
%TO.P,J1,2,Pin_2*%
%TO.N,A5*%
X120930000Y-56440000D03*
%TO.P,J1,3,Pin_3*%
%TO.N,A4*%
X120930000Y-58980000D03*
%TO.P,J1,4,Pin_4*%
%TO.N,Net-(J1-Pin_4)*%
X120930000Y-61520000D03*
%TO.P,J1,5,Pin_5*%
%TO.N,A3*%
X120930000Y-64060000D03*
%TO.P,J1,6,Pin_6*%
%TO.N,Net-(J1-Pin_6)*%
X120930000Y-66600000D03*
%TO.P,J1,7,Pin_7*%
%TO.N,A2*%
X120930000Y-69140000D03*
%TO.P,J1,8,Pin_8*%
%TO.N,A1*%
X120930000Y-71680000D03*
%TO.P,J1,9,Pin_9*%
%TO.N,Net-(J1-Pin_9)*%
X120930000Y-74220000D03*
%TO.P,J1,10,Pin_10*%
%TO.N,A0*%
X120930000Y-76760000D03*
%TO.P,J1,11,Pin_11*%
%TO.N,Net-(J1-Pin_11)*%
X120930000Y-79300000D03*
%TO.P,J1,12,Pin_12*%
%TO.N,D0*%
X120930000Y-81840000D03*
%TO.P,J1,13,Pin_13*%
%TO.N,D2*%
X120930000Y-84380000D03*
%TO.P,J1,14,Pin_14*%
%TO.N,D1*%
X120930000Y-86920000D03*
%TO.P,J1,15,Pin_15*%
%TO.N,D2*%
X120930000Y-89460000D03*
%TO.P,J1,16,Pin_16*%
%TO.N,GND*%
X120930000Y-92000000D03*
%TO.P,J1,17,Pin_17*%
%TO.N,Net-(J1-Pin_17)*%
X120930000Y-94540000D03*
%TO.P,J1,18,Pin_18*%
%TO.N,D3*%
X120930000Y-97080000D03*
%TO.P,J1,19,Pin_19*%
%TO.N,CE3*%
X120930000Y-99620000D03*
%TO.P,J1,20,Pin_20*%
%TO.N,D4*%
X120930000Y-102160000D03*
%TO.P,J1,21,Pin_21*%
%TO.N,D5*%
X120930000Y-104700000D03*
%TO.P,J1,22,Pin_22*%
X120930000Y-107240000D03*
%TD*%
D20*
%TO.N,GND*%
X81661000Y-60960000D03*
X78105000Y-73406000D03*
%TO.N,Net-(U1-GPIO7)*%
X76708000Y-77851000D03*
%TO.N,Net-(U1-GPIO6)*%
X79629000Y-74676000D03*
%TO.N,D1*%
X77851000Y-59309000D03*
%TO.N,D2*%
X77216000Y-63881000D03*
%TO.N,D3*%
X77216000Y-66167000D03*
%TO.N,D4*%
X77343000Y-68834000D03*
%TO.N,D5*%
X77597000Y-70993000D03*
%TO.N,D6*%
X77216000Y-76327000D03*
%TO.N,D7*%
X77470000Y-79121000D03*
%TO.N,D0*%
X78867000Y-54229000D03*
%TO.N,GND*%
X100457000Y-60960000D03*
%TO.N,+5V*%
X132334000Y-49530000D03*
X131699000Y-69088000D03*
X99949000Y-49784000D03*
X100203000Y-58293000D03*
%TO.N,Net-(J5-Pin_4)*%
X117729000Y-61849000D03*
X99314000Y-62103000D03*
X95758000Y-78486000D03*
%TO.N,Net-(J5-Pin_3)*%
X114846000Y-78994000D03*
%TO.N,GND*%
X100965000Y-73670000D03*
%TO.N,A0*%
X118999000Y-108712000D03*
X82042000Y-108458000D03*
X81026000Y-81280000D03*
X119939085Y-77211000D03*
%TO.N,Net-(J5-Pin_2)*%
X114846000Y-71501000D03*
X100584000Y-71120000D03*
X100457000Y-64770000D03*
X115062000Y-66421000D03*
%TO.N,A1*%
X82058703Y-72475575D03*
%TO.N,D0*%
X118237000Y-55118000D03*
X118618000Y-81788000D03*
%TO.N,D2*%
X115697000Y-83820000D03*
X94742000Y-79756000D03*
X94653000Y-63754000D03*
X115951000Y-79248000D03*
X117856000Y-83439000D03*
X117602000Y-89281000D03*
%TO.N,D1*%
X118618000Y-84582000D03*
X118872000Y-86741000D03*
X93853000Y-85090000D03*
X93726000Y-60833000D03*
%TO.N,GND*%
X100203000Y-99187000D03*
X101130000Y-86233000D03*
X115824000Y-86233000D03*
X115697000Y-92075000D03*
%TO.N,A10*%
X145923000Y-109893000D03*
X101473000Y-109601000D03*
%TO.N,CE*%
X128270000Y-77597000D03*
X129286000Y-98820000D03*
%TO.N,A11*%
X133007000Y-94361000D03*
X133350000Y-86868000D03*
X133477000Y-66675000D03*
%TO.N,A8*%
X102743000Y-110363000D03*
X132334000Y-110617000D03*
%TO.N,A13*%
X100330000Y-75057000D03*
X100203000Y-89281000D03*
%TO.N,A14*%
X106515000Y-71247000D03*
%TO.N,A9*%
X114846000Y-81407000D03*
X114554000Y-102997000D03*
%TO.N,D3*%
X85852000Y-108077000D03*
X113449000Y-96647000D03*
X89154000Y-66294000D03*
X113030000Y-107696000D03*
%TO.N,CE3*%
X112649000Y-99314000D03*
%TO.N,D4*%
X99060000Y-107188000D03*
X98425000Y-68707000D03*
X110363000Y-102616000D03*
X110490000Y-107315000D03*
%TO.N,D7*%
X90043000Y-82677000D03*
X110236000Y-100711000D03*
X111439000Y-83185000D03*
X89412000Y-78613000D03*
%TO.N,D5*%
X92202000Y-71374000D03*
X92710000Y-100076000D03*
X108204000Y-104648000D03*
X108115000Y-100203000D03*
%TO.N,D6*%
X88049000Y-76454000D03*
X87503000Y-106934000D03*
%TO.N,A2*%
X97282000Y-88519000D03*
X97155000Y-67818000D03*
%TO.N,OE*%
X110744000Y-88011000D03*
%TO.N,A12*%
X131572000Y-58674000D03*
X130175000Y-90932000D03*
%TO.N,A7*%
X107823000Y-57150000D03*
X107315000Y-102743000D03*
%TO.N,A3*%
X114046000Y-64643000D03*
X113919000Y-92710000D03*
%TO.N,A4*%
X108712000Y-58801000D03*
X108331000Y-94996000D03*
%TO.N,A5*%
X109601000Y-97409000D03*
X109728000Y-56134000D03*
%TO.N,A6*%
X87249000Y-52832000D03*
%TO.N,D0*%
X147320000Y-91948000D03*
X158623000Y-91821000D03*
X147447000Y-83185000D03*
%TO.N,D2*%
X160020000Y-90805000D03*
%TO.N,D1*%
X160655000Y-85979000D03*
%TO.N,D2*%
X161671000Y-90805000D03*
%TO.N,GND*%
X162941000Y-92964000D03*
%TO.N,Net-(J1-Pin_17)*%
X164100000Y-95504000D03*
%TO.N,D3*%
X164973000Y-98044000D03*
%TO.N,CE3*%
X166100000Y-100838000D03*
%TO.N,D4*%
X166624000Y-103020000D03*
%TO.N,D5*%
X128524000Y-108839000D03*
X170561000Y-109093000D03*
%TO.N,D7*%
X171323000Y-102362000D03*
%TO.N,Net-(J3-Pin_21)*%
X172593000Y-104902000D03*
%TO.N,D6*%
X173609000Y-107315000D03*
%TO.N,CE*%
X170428698Y-81420235D03*
X157772000Y-82700000D03*
X157861000Y-99314000D03*
%TO.N,Net-(J3-Pin_18)*%
X156972000Y-80899000D03*
X157353000Y-97282000D03*
X170800578Y-80491951D03*
%TO.N,A10*%
X145923000Y-79671000D03*
X170942000Y-79502000D03*
X145669000Y-94488000D03*
%TO.N,Net-(J3-Pin_16)*%
X144907000Y-78871000D03*
X170942000Y-78359000D03*
X145034000Y-91948000D03*
%TO.N,OE*%
X175641000Y-89408000D03*
%TO.N,Net-(J3-Pin_13)*%
X176657000Y-84455000D03*
%TO.N,A9*%
X172974000Y-73152000D03*
X169037000Y-81915000D03*
X169037000Y-73025000D03*
%TO.N,A11*%
X171069000Y-66548000D03*
%TO.N,A8*%
X166751000Y-65532000D03*
X168910000Y-65532000D03*
%TO.N,A13*%
X168021000Y-76835000D03*
%TO.N,A8*%
X132207000Y-79248000D03*
X132207000Y-74168000D03*
X167005000Y-74168000D03*
%TO.N,A14*%
X165862000Y-72136000D03*
%TO.N,+5V*%
X164973000Y-67564000D03*
%TO.N,A11*%
X163830000Y-66548000D03*
%TO.N,CSB*%
X162941000Y-64135000D03*
%TO.N,CSA*%
X161925000Y-61468000D03*
%TO.N,A12*%
X160782000Y-54102000D03*
%TO.N,A7*%
X159766000Y-56515000D03*
%TO.N,A12*%
X158623000Y-59055000D03*
%TO.N,Net-(J1-Pin_11)*%
X148844000Y-80645000D03*
%TO.N,A0*%
X147193000Y-77851000D03*
%TO.N,Net-(J1-Pin_9)*%
X146050000Y-75565000D03*
%TO.N,A1*%
X145212000Y-73025000D03*
%TO.N,A2*%
X146012000Y-70104000D03*
%TO.N,Net-(J1-Pin_6)*%
X146812000Y-67437000D03*
%TO.N,A3*%
X147752000Y-65532000D03*
%TO.N,Net-(J1-Pin_4)*%
X148552000Y-62738000D03*
%TO.N,A4*%
X149352000Y-57531000D03*
%TO.N,A5*%
X150241000Y-55372000D03*
%TO.N,A6*%
X151003000Y-51689000D03*
%TO.N,CSA*%
X111252000Y-60325000D03*
%TO.N,CSB*%
X110490000Y-71374000D03*
X110490000Y-62992000D03*
%TO.N,A12*%
X143637000Y-54102000D03*
X143637000Y-59055000D03*
D21*
%TO.N,D5*%
X128524000Y-104648000D03*
X128524000Y-107315000D03*
%TD*%
D22*
%TO.N,GND*%
X76581000Y-72771000D02*
X77724000Y-72771000D01*
X78613000Y-60960000D02*
X78105000Y-61468000D01*
X81661000Y-60960000D02*
X78613000Y-60960000D01*
X78105000Y-61468000D02*
X76415000Y-63158000D01*
X77724000Y-72771000D02*
X78105000Y-73152000D01*
X78105000Y-73152000D02*
X78105000Y-73406000D01*
X76415000Y-63158000D02*
X76415000Y-72605000D01*
X76415000Y-72605000D02*
X76581000Y-72771000D01*
%TO.N,Net-(U1-GPIO7)*%
X76920000Y-77639000D02*
X76708000Y-77851000D01*
X79512000Y-77639000D02*
X76920000Y-77639000D01*
X80613000Y-78740000D02*
X79512000Y-77639000D01*
%TO.N,Net-(U1-GPIO6)*%
X80613000Y-75660000D02*
X79629000Y-74676000D01*
X80613000Y-76200000D02*
X80613000Y-75660000D01*
%TO.N,D1*%
X78121000Y-59309000D02*
X78883000Y-58547000D01*
X77851000Y-59309000D02*
X78121000Y-59309000D01*
%TO.N,D2*%
X77216000Y-63881000D02*
X78486000Y-63881000D01*
X78486000Y-63881000D02*
X78867000Y-63500000D01*
%TO.N,D3*%
X77216000Y-66167000D02*
X78740000Y-66167000D01*
X78740000Y-66167000D02*
X78867000Y-66040000D01*
%TO.N,D4*%
X77343000Y-68834000D02*
X78613000Y-68834000D01*
X78613000Y-68834000D02*
X78867000Y-68580000D01*
%TO.N,D5*%
X78740000Y-70993000D02*
X78867000Y-71120000D01*
X77597000Y-70993000D02*
X78740000Y-70993000D01*
%TO.N,D6*%
X77216000Y-76327000D02*
X78486000Y-76327000D01*
X78486000Y-76327000D02*
X78613000Y-76200000D01*
%TO.N,D7*%
X77470000Y-79121000D02*
X78232000Y-79121000D01*
X78232000Y-79121000D02*
X78613000Y-78740000D01*
%TO.N,Net-(U1-GPIO5)*%
X80867000Y-71120000D02*
X85190000Y-71120000D01*
X85190000Y-71120000D02*
X85200000Y-71130000D01*
%TO.N,Net-(U1-GPIO4)*%
X80867000Y-68580000D02*
X85190000Y-68580000D01*
X85190000Y-68580000D02*
X85200000Y-68590000D01*
%TO.N,Net-(U1-GPIO3)*%
X80867000Y-66040000D02*
X85190000Y-66040000D01*
X85190000Y-66040000D02*
X85200000Y-66050000D01*
%TO.N,Net-(U1-GPIO2)*%
X80867000Y-63500000D02*
X85190000Y-63500000D01*
X85190000Y-63500000D02*
X85200000Y-63510000D01*
%TO.N,Net-(U1-GPIO1)*%
X80883000Y-58547000D02*
X85083000Y-58547000D01*
X85083000Y-58547000D02*
X85200000Y-58430000D01*
%TO.N,Net-(U1-GPIO0)*%
X80883000Y-55880000D02*
X85190000Y-55880000D01*
X85190000Y-55880000D02*
X85200000Y-55890000D01*
%TO.N,D0*%
X78867000Y-54229000D02*
X78867000Y-55864000D01*
X78867000Y-55864000D02*
X78883000Y-55880000D01*
%TO.N,GND*%
X101473000Y-61976000D02*
X101473000Y-73162000D01*
X100457000Y-60960000D02*
X101473000Y-61976000D01*
X101473000Y-73162000D02*
X100965000Y-73670000D01*
%TO.N,+5V*%
X99949000Y-49784000D02*
X99949000Y-58039000D01*
X99949000Y-58039000D02*
X100203000Y-58293000D01*
X132373000Y-68414000D02*
X132373000Y-49569000D01*
X132373000Y-49569000D02*
X132334000Y-49530000D01*
X131699000Y-69088000D02*
X132373000Y-68414000D01*
%TO.N,Net-(J5-Pin_4)*%
X117731000Y-61851000D02*
X117729000Y-61849000D01*
X116480000Y-76700000D02*
X117731000Y-75449000D01*
X95758000Y-65659000D02*
X95758000Y-78486000D01*
X117731000Y-75449000D02*
X117731000Y-61851000D01*
X99314000Y-62103000D02*
X95758000Y-65659000D01*
%TO.N,Net-(J5-Pin_3)*%
X114846000Y-75794000D02*
X114846000Y-78994000D01*
X116480000Y-74160000D02*
X114846000Y-75794000D01*
%TO.N,GND*%
X101130000Y-86233000D02*
X101130000Y-73835000D01*
X101130000Y-73835000D02*
X100965000Y-73670000D01*
%TO.N,A0*%
X119679000Y-108032000D02*
X118999000Y-108712000D01*
X119939085Y-77211000D02*
X119679000Y-77471085D01*
X81026000Y-107442000D02*
X81026000Y-81280000D01*
X82042000Y-108458000D02*
X81026000Y-107442000D01*
X119679000Y-77471085D02*
X119679000Y-108032000D01*
%TO.N,Net-(J5-Pin_2)*%
X115062000Y-71285000D02*
X115062000Y-66421000D01*
X100457000Y-70993000D02*
X100584000Y-71120000D01*
X100457000Y-64770000D02*
X100457000Y-70993000D01*
X114846000Y-71501000D02*
X115062000Y-71285000D01*
%TO.N,A1*%
X82058703Y-72475575D02*
X82058703Y-83569297D01*
X82058703Y-83569297D02*
X82319406Y-83830000D01*
X82319406Y-83830000D02*
X85200000Y-83830000D01*
%TO.N,D0*%
X118618000Y-55499000D02*
X118237000Y-55118000D01*
X118618000Y-81788000D02*
X118618000Y-55499000D01*
%TO.N,D2*%
X115697000Y-79502000D02*
X115951000Y-79248000D01*
X115697000Y-83820000D02*
X115697000Y-79502000D01*
X94742000Y-79756000D02*
X94742000Y-63843000D01*
X94742000Y-63843000D02*
X94653000Y-63754000D01*
X117602000Y-83693000D02*
X117856000Y-83439000D01*
X117602000Y-89281000D02*
X117602000Y-83693000D01*
%TO.N,D1*%
X93853000Y-85090000D02*
X93853000Y-60960000D01*
X118872000Y-84836000D02*
X118618000Y-84582000D01*
X93853000Y-60960000D02*
X93726000Y-60833000D01*
X118872000Y-86741000D02*
X118872000Y-84836000D01*
%TO.N,GND*%
X101130000Y-86233000D02*
X101130000Y-89486786D01*
X100203000Y-90413786D02*
X100203000Y-99187000D01*
X101130000Y-89486786D02*
X100203000Y-90413786D01*
X115824000Y-91948000D02*
X115824000Y-86233000D01*
X115697000Y-92075000D02*
X115824000Y-91948000D01*
%TO.N,A10*%
X101473000Y-109601000D02*
X101473000Y-96774000D01*
X145669000Y-109639000D02*
X145923000Y-109893000D01*
X101473000Y-96774000D02*
X101727000Y-96520000D01*
X145669000Y-94488000D02*
X145669000Y-109639000D01*
X101727000Y-96520000D02*
X102970000Y-96520000D01*
X102970000Y-96520000D02*
X102980000Y-96530000D01*
%TO.N,CE*%
X129286000Y-78613000D02*
X128270000Y-77597000D01*
X129286000Y-98820000D02*
X129286000Y-78613000D01*
%TO.N,A11*%
X133350000Y-94018000D02*
X133007000Y-94361000D01*
X133350000Y-86868000D02*
X133350000Y-94018000D01*
X133477000Y-86741000D02*
X133350000Y-86868000D01*
X133477000Y-66675000D02*
X133477000Y-86741000D01*
%TO.N,A8*%
X132207000Y-79248000D02*
X132207000Y-110490000D01*
X132207000Y-110490000D02*
X132334000Y-110617000D01*
X102743000Y-110363000D02*
X102743000Y-104387000D01*
X102743000Y-104387000D02*
X102980000Y-104150000D01*
%TO.N,A13*%
X100330000Y-75057000D02*
X100330000Y-89154000D01*
X100330000Y-89154000D02*
X100203000Y-89281000D01*
%TO.N,A14*%
X104742000Y-83830000D02*
X102980000Y-83830000D01*
X106515000Y-71247000D02*
X106515000Y-82057000D01*
X106515000Y-82057000D02*
X104742000Y-83830000D01*
%TO.N,A9*%
X114846000Y-81407000D02*
X114846000Y-102705000D01*
X114846000Y-102705000D02*
X114554000Y-102997000D01*
%TO.N,D3*%
X85852000Y-108077000D02*
X87492786Y-108077000D01*
X87492786Y-108077000D02*
X89408000Y-106161786D01*
X89408000Y-84444786D02*
X90844000Y-83008786D01*
X90844000Y-83008786D02*
X90844000Y-67984000D01*
X90844000Y-67984000D02*
X89154000Y-66294000D01*
X89408000Y-106161786D02*
X89408000Y-84444786D01*
X113449000Y-96647000D02*
X113449000Y-107277000D01*
X113449000Y-107277000D02*
X113030000Y-107696000D01*
%TO.N,CE3*%
X112649000Y-99314000D02*
X112649000Y-79999000D01*
X112649000Y-79999000D02*
X111890000Y-79240000D01*
%TO.N,D4*%
X110490000Y-102743000D02*
X110490000Y-107315000D01*
X99060000Y-69342000D02*
X98425000Y-68707000D01*
X110363000Y-102616000D02*
X110490000Y-102743000D01*
X99060000Y-107188000D02*
X99060000Y-69342000D01*
%TO.N,D7*%
X111545000Y-83291000D02*
X111439000Y-83185000D01*
X111545000Y-99402000D02*
X111545000Y-83291000D01*
X90043000Y-82677000D02*
X89412000Y-82046000D01*
X89412000Y-82046000D02*
X89412000Y-78613000D01*
X110236000Y-100711000D02*
X111545000Y-99402000D01*
%TO.N,D5*%
X108204000Y-104648000D02*
X108204000Y-100292000D01*
X92710000Y-100076000D02*
X92710000Y-71882000D01*
X92710000Y-71882000D02*
X92202000Y-71374000D01*
X108204000Y-100292000D02*
X108115000Y-100203000D01*
%TO.N,D6*%
X88612000Y-77017000D02*
X88049000Y-76454000D01*
X88612000Y-105825000D02*
X88612000Y-77017000D01*
X87503000Y-106934000D02*
X88612000Y-105825000D01*
%TO.N,A2*%
X97155000Y-67818000D02*
X97155000Y-88392000D01*
X97155000Y-88392000D02*
X97282000Y-88519000D01*
%TO.N,OE*%
X110639000Y-75411000D02*
X111890000Y-74160000D01*
X110744000Y-88011000D02*
X110639000Y-87906000D01*
X110639000Y-87906000D02*
X110639000Y-75411000D01*
%TO.N,A12*%
X131572000Y-58674000D02*
X130175000Y-60071000D01*
X130175000Y-60071000D02*
X130175000Y-90932000D01*
%TO.N,A7*%
X107823000Y-57150000D02*
X107315000Y-57658000D01*
X107315000Y-57658000D02*
X107315000Y-102743000D01*
%TO.N,A3*%
X114046000Y-64643000D02*
X114046000Y-92583000D01*
X114046000Y-92583000D02*
X113919000Y-92710000D01*
%TO.N,A4*%
X108712000Y-58801000D02*
X108712000Y-94615000D01*
X108712000Y-94615000D02*
X108331000Y-94996000D01*
%TO.N,A5*%
X109601000Y-76581000D02*
X109601000Y-97409000D01*
X109601000Y-56261000D02*
X109601000Y-76581000D01*
X109728000Y-56134000D02*
X109601000Y-56261000D01*
%TO.N,A6*%
X87249000Y-100584000D02*
X88011000Y-101346000D01*
X87249000Y-52832000D02*
X87249000Y-100584000D01*
X88011000Y-101346000D02*
X87747000Y-101610000D01*
X87747000Y-101610000D02*
X85200000Y-101610000D01*
%TO.N,D0*%
X158900000Y-88475000D02*
X158900000Y-91544000D01*
X158900000Y-91544000D02*
X158623000Y-91821000D01*
X147320000Y-91948000D02*
X147447000Y-91821000D01*
X147447000Y-91821000D02*
X147447000Y-83185000D01*
%TO.N,D2*%
X159900000Y-88475000D02*
X159900000Y-90685000D01*
X159900000Y-90685000D02*
X160020000Y-90805000D01*
%TO.N,D1*%
X160900000Y-88475000D02*
X160900000Y-86224000D01*
X160900000Y-86224000D02*
X160655000Y-85979000D01*
%TO.N,D2*%
X161900000Y-88475000D02*
X161900000Y-90576000D01*
X161900000Y-90576000D02*
X161671000Y-90805000D01*
%TO.N,GND*%
X162900000Y-88475000D02*
X162900000Y-92923000D01*
X162900000Y-92923000D02*
X162941000Y-92964000D01*
%TO.N,Net-(J1-Pin_17)*%
X163900000Y-88475000D02*
X163900000Y-95304000D01*
X163900000Y-95304000D02*
X164100000Y-95504000D01*
%TO.N,D3*%
X164900000Y-88475000D02*
X164900000Y-97971000D01*
X164900000Y-97971000D02*
X164973000Y-98044000D01*
%TO.N,CE3*%
X165900000Y-88475000D02*
X165900000Y-100638000D01*
X165900000Y-100638000D02*
X166100000Y-100838000D01*
%TO.N,D4*%
X166900000Y-88475000D02*
X166900000Y-102744000D01*
X166900000Y-102744000D02*
X166624000Y-103020000D01*
%TO.N,D5*%
X168900000Y-88475000D02*
X167900000Y-88475000D01*
X170517000Y-88475000D02*
X170561000Y-88519000D01*
X168900000Y-88475000D02*
X170517000Y-88475000D01*
X170561000Y-88519000D02*
X170522000Y-88558000D01*
X170522000Y-88558000D02*
X170522000Y-109054000D01*
X170522000Y-109054000D02*
X170561000Y-109093000D01*
X128524000Y-108839000D02*
X128524000Y-107315000D01*
%TO.N,D7*%
X171323000Y-86995000D02*
X171323000Y-102362000D01*
X171958000Y-86360000D02*
X171323000Y-86995000D01*
X173275000Y-82100000D02*
X171775000Y-82100000D01*
X171775000Y-82100000D02*
X170773000Y-83102000D01*
X170773000Y-83102000D02*
X170773000Y-85175000D01*
X170773000Y-85175000D02*
X171958000Y-86360000D01*
%TO.N,Net-(J3-Pin_21)*%
X172847000Y-85471000D02*
X172593000Y-85725000D01*
X173275000Y-83100000D02*
X171916498Y-83100000D01*
X171916498Y-83100000D02*
X171374000Y-83642498D01*
X172593000Y-85725000D02*
X172593000Y-104902000D01*
X171374000Y-83642498D02*
X171374000Y-84760000D01*
X171374000Y-84760000D02*
X172085000Y-85471000D01*
X172085000Y-85471000D02*
X172847000Y-85471000D01*
%TO.N,D6*%
X173609000Y-89535000D02*
X173609000Y-107315000D01*
X174345000Y-84100000D02*
X174371000Y-84074000D01*
X173275000Y-84100000D02*
X174345000Y-84100000D01*
X174371000Y-84074000D02*
X175006000Y-84709000D01*
X175006000Y-88138000D02*
X173609000Y-89535000D01*
X175006000Y-84709000D02*
X175006000Y-88138000D01*
%TO.N,D7*%
X174575000Y-82100000D02*
X174625000Y-82150000D01*
X173275000Y-82100000D02*
X174575000Y-82100000D01*
%TO.N,CE*%
X158154000Y-99021000D02*
X157861000Y-99314000D01*
X173031541Y-81343459D02*
X170505474Y-81343459D01*
X158154000Y-96950214D02*
X158154000Y-99021000D01*
X173275000Y-81100000D02*
X173031541Y-81343459D01*
X170505474Y-81343459D02*
X170428698Y-81420235D01*
X157772000Y-82700000D02*
X157772000Y-96568214D01*
X157772000Y-96568214D02*
X158154000Y-96950214D01*
%TO.N,Net-(J3-Pin_18)*%
X171775000Y-80100000D02*
X171383049Y-80491951D01*
X171383049Y-80491951D02*
X170800578Y-80491951D01*
X156972000Y-80899000D02*
X156972000Y-96901000D01*
X156972000Y-96901000D02*
X157353000Y-97282000D01*
%TO.N,A10*%
X173275000Y-79100000D02*
X171344000Y-79100000D01*
X171344000Y-79100000D02*
X170942000Y-79502000D01*
X145923000Y-94234000D02*
X145669000Y-94488000D01*
X145923000Y-79671000D02*
X145923000Y-94234000D01*
%TO.N,Net-(J3-Pin_16)*%
X144907000Y-78871000D02*
X144907000Y-91821000D01*
X144907000Y-91821000D02*
X145034000Y-91948000D01*
X173275000Y-78100000D02*
X171201000Y-78100000D01*
X171201000Y-78100000D02*
X170942000Y-78359000D01*
%TO.N,Net-(J3-Pin_18)*%
X173275000Y-80100000D02*
X171775000Y-80100000D01*
%TO.N,OE*%
X175641000Y-77089000D02*
X175641000Y-89408000D01*
X173275000Y-77100000D02*
X175630000Y-77100000D01*
X175630000Y-77100000D02*
X175641000Y-77089000D01*
%TO.N,Net-(J3-Pin_13)*%
X176657000Y-75311000D02*
X176657000Y-84455000D01*
X173275000Y-75100000D02*
X173486000Y-75311000D01*
X173486000Y-75311000D02*
X176657000Y-75311000D01*
%TO.N,A9*%
X169037000Y-73025000D02*
X169037000Y-81915000D01*
X173275000Y-73453000D02*
X172974000Y-73152000D01*
X173275000Y-74100000D02*
X173275000Y-73453000D01*
%TO.N,A11*%
X171775000Y-76100000D02*
X171069000Y-75394000D01*
X171069000Y-75394000D02*
X171069000Y-66548000D01*
X173275000Y-76100000D02*
X171775000Y-76100000D01*
%TO.N,A8*%
X168900000Y-69725000D02*
X168900000Y-65542000D01*
X168900000Y-65542000D02*
X168910000Y-65532000D01*
X166751000Y-65532000D02*
X166900000Y-65681000D01*
X166900000Y-65681000D02*
X166900000Y-69725000D01*
%TO.N,A13*%
X167900000Y-76714000D02*
X168021000Y-76835000D01*
X167900000Y-69725000D02*
X167900000Y-76714000D01*
%TO.N,A8*%
X132207000Y-74168000D02*
X132207000Y-79248000D01*
X166900000Y-74063000D02*
X167005000Y-74168000D01*
X166900000Y-69725000D02*
X166900000Y-74063000D01*
%TO.N,A14*%
X165900000Y-72098000D02*
X165862000Y-72136000D01*
X165900000Y-69725000D02*
X165900000Y-72098000D01*
%TO.N,+5V*%
X164900000Y-67637000D02*
X164973000Y-67564000D01*
X164900000Y-69725000D02*
X164900000Y-67637000D01*
%TO.N,A11*%
X163900000Y-66618000D02*
X163830000Y-66548000D01*
X163900000Y-69725000D02*
X163900000Y-66618000D01*
%TO.N,CSB*%
X162900000Y-64176000D02*
X162941000Y-64135000D01*
X162900000Y-69725000D02*
X162900000Y-64176000D01*
%TO.N,CSA*%
X161900000Y-61493000D02*
X161925000Y-61468000D01*
X161900000Y-69725000D02*
X161900000Y-61493000D01*
%TO.N,A12*%
X160900000Y-54220000D02*
X160782000Y-54102000D01*
X160900000Y-69725000D02*
X160900000Y-54220000D01*
%TO.N,A7*%
X159900000Y-56649000D02*
X159766000Y-56515000D01*
X159900000Y-69725000D02*
X159900000Y-56649000D01*
%TO.N,A12*%
X158900000Y-59332000D02*
X158623000Y-59055000D01*
X158900000Y-69725000D02*
X158900000Y-59332000D01*
%TO.N,Net-(J1-Pin_11)*%
X154525000Y-84100000D02*
X152299000Y-84100000D01*
X152299000Y-84100000D02*
X148844000Y-80645000D01*
%TO.N,A0*%
X154525000Y-83100000D02*
X152442000Y-83100000D01*
X152442000Y-83100000D02*
X147193000Y-77851000D01*
%TO.N,Net-(J1-Pin_9)*%
X154525000Y-82100000D02*
X152585000Y-82100000D01*
X152585000Y-82100000D02*
X146050000Y-75565000D01*
%TO.N,A1*%
X154525000Y-81100000D02*
X153109000Y-81100000D01*
X153109000Y-81100000D02*
X145212000Y-73203000D01*
X145212000Y-73203000D02*
X145212000Y-73025000D01*
%TO.N,A2*%
X154525000Y-80100000D02*
X153025000Y-80100000D01*
X153025000Y-80100000D02*
X146012000Y-73087000D01*
X146012000Y-73087000D02*
X146012000Y-70104000D01*
%TO.N,Net-(J1-Pin_6)*%
X154525000Y-79100000D02*
X153025000Y-79100000D01*
X153025000Y-79100000D02*
X146812000Y-72887000D01*
X146812000Y-72887000D02*
X146812000Y-67437000D01*
%TO.N,A3*%
X147701000Y-72741768D02*
X147701000Y-68072000D01*
X153059232Y-78100000D02*
X147701000Y-72741768D01*
X154525000Y-78100000D02*
X153059232Y-78100000D01*
X147701000Y-68072000D02*
X147701000Y-65583000D01*
X147701000Y-65583000D02*
X147752000Y-65532000D01*
%TO.N,Net-(J1-Pin_4)*%
X148552000Y-72742826D02*
X148552000Y-62738000D01*
X152909174Y-77100000D02*
X148552000Y-72742826D01*
X154525000Y-77100000D02*
X152909174Y-77100000D01*
%TO.N,A4*%
X154525000Y-76100000D02*
X152759116Y-76100000D01*
X152759116Y-76100000D02*
X149352000Y-72692884D01*
X149352000Y-72692884D02*
X149352000Y-57531000D01*
%TO.N,A5*%
X154525000Y-75100000D02*
X152609058Y-75100000D01*
X152609058Y-75100000D02*
X150241000Y-72731942D01*
X150241000Y-72731942D02*
X150241000Y-55372000D01*
%TO.N,A6*%
X151130000Y-51816000D02*
X151003000Y-51689000D01*
X151130000Y-72771000D02*
X151130000Y-51816000D01*
X154525000Y-74100000D02*
X152459000Y-74100000D01*
X152459000Y-74100000D02*
X151130000Y-72771000D01*
%TO.N,CSA*%
X111890000Y-69080000D02*
X111890000Y-60963000D01*
X111890000Y-60963000D02*
X111252000Y-60325000D01*
%TO.N,CSB*%
X110490000Y-71374000D02*
X110490000Y-62992000D01*
%TO.N,A12*%
X143637000Y-59055000D02*
X143637000Y-54102000D01*
%TO.N,D5*%
X128524000Y-107315000D02*
X128524000Y-104648000D01*
%TD*%
M02*
