M48
; DRILL file {KiCad 9.0.3-1.fc42} date 2025-11-28T05:18:46+0000
; FORMAT={-:-/ absolute / inch / decimal}
; #@! TF.CreationDate,2025-11-28T05:18:46+00:00
; #@! TF.GenerationSoftware,Kicad,Pcbnew,9.0.3-1.fc42
; #@! TF.FileFunction,Plated,1,2,PTH
FMAT,2
INCH
; #@! TA.AperFunction,Plated,PTH,ViaDrill
T1C0.0118
; #@! TA.AperFunction,Plated,PTH,ViaDrill
T2C0.0236
; #@! TA.AperFunction,Plated,PTH,ComponentDrill
T3C0.0394
; #@! TA.AperFunction,Plated,PTH,ComponentDrill
T4C0.0402
%
G90
G05
T1
X5.06Y-4.12
X5.06Y-4.225
T2
X3.02Y-3.065
X3.04Y-2.515
X3.04Y-2.605
X3.04Y-3.005
X3.045Y-2.71
X3.05Y-3.115
X3.055Y-2.795
X3.065Y-2.335
X3.075Y-2.89
X3.105Y-2.135
X3.135Y-2.94
X3.19Y-3.2
X3.215Y-2.4
X3.23Y-4.27
X3.2307Y-2.8534
X3.38Y-4.255
X3.435Y-2.08
X3.445Y-4.21
X3.4665Y-3.01
X3.51Y-2.61
X3.5202Y-3.095
X3.545Y-3.255
X3.63Y-2.81
X3.65Y-3.94
X3.69Y-2.395
X3.695Y-3.35
X3.7265Y-2.51
X3.73Y-3.14
X3.77Y-3.09
X3.825Y-2.67
X3.83Y-3.485
X3.875Y-2.705
X3.9Y-4.22
X3.91Y-2.445
X3.935Y-1.96
X3.945Y-2.295
X3.945Y-3.515
X3.945Y-3.905
X3.95Y-2.955
X3.955Y-2.4
X3.955Y-2.55
X3.96Y-2.8
X3.975Y-2.9004
X3.9815Y-3.395
X3.995Y-4.315
X4.045Y-4.345
X4.1935Y-2.805
X4.225Y-4.045
X4.245Y-2.25
X4.2565Y-3.945
X4.26Y-4.12
X4.265Y-3.74
X4.28Y-2.315
X4.315Y-3.835
X4.32Y-2.21
X4.34Y-3.965
X4.345Y-4.04
X4.35Y-2.48
X4.35Y-2.81
X4.35Y-4.225
X4.36Y-3.465
X4.38Y-2.375
X4.3874Y-3.275
X4.435Y-3.91
X4.45Y-4.24
X4.4665Y-3.805
X4.485Y-3.65
X4.49Y-2.545
X4.51Y-4.055
X4.5215Y-2.815
X4.5215Y-3.11
X4.5215Y-3.205
X4.53Y-2.615
X4.555Y-3.3
X4.555Y-3.625
X4.56Y-3.395
X4.565Y-3.12
X4.63Y-3.515
X4.635Y-2.435
X4.64Y-3.285
X4.655Y-2.17
X4.67Y-3.22
X4.67Y-3.33
X4.68Y-3.415
X4.685Y-4.28
X4.722Y-3.0398
X5.05Y-3.055
X5.06Y-4.285
X5.09Y-3.8906
X5.125Y-3.58
X5.18Y-2.31
X5.185Y-2.72
X5.205Y-2.92
X5.205Y-3.12
X5.21Y-1.95
X5.21Y-4.355
X5.2365Y-3.715
X5.25Y-3.42
X5.255Y-2.625
X5.655Y-2.13
X5.655Y-2.325
X5.705Y-3.1052
X5.71Y-3.62
X5.717Y-2.875
X5.735Y-3.72
X5.745Y-3.1367
X5.745Y-4.3265
X5.7485Y-2.76
X5.75Y-2.975
X5.78Y-2.655
X5.795Y-3.065
X5.8Y-3.62
X5.805Y-3.275
X5.817Y-2.58
X5.8485Y-2.47
X5.86Y-3.175
X5.88Y-2.265
X5.915Y-2.18
X5.945Y-2.035
X6.18Y-3.185
X6.195Y-3.83
X6.2115Y-3.2559
X6.215Y-3.91
X6.245Y-2.325
X6.245Y-3.615
X6.29Y-2.225
X6.3Y-3.575
X6.325Y-3.385
X6.33Y-2.13
X6.365Y-3.575
X6.375Y-2.42
X6.415Y-2.525
X6.415Y-3.66
X6.45Y-2.62
X6.4606Y-3.76
X6.495Y-2.66
X6.495Y-3.86
X6.53Y-2.84
X6.5394Y-3.97
X6.56Y-4.0559
X6.565Y-2.58
X6.575Y-2.92
X6.615Y-3.025
X6.65Y-2.58
X6.655Y-2.875
X6.655Y-3.225
X6.7098Y-3.2055
X6.715Y-4.295
X6.7244Y-3.169
X6.73Y-3.085
X6.73Y-3.13
X6.735Y-2.62
X6.745Y-4.03
X6.795Y-4.13
X6.81Y-2.88
X6.835Y-4.225
X6.915Y-3.52
X6.955Y-3.325
T3
X4.4051Y-2.7197
X4.4051Y-2.8197
X4.4051Y-2.9197
X4.4051Y-3.0197
X4.4051Y-3.1197
X4.5858Y-2.7197
X4.5858Y-2.8197
X4.5858Y-2.9197
X4.5858Y-3.0197
X4.761Y-2.122
X4.761Y-2.222
X4.761Y-2.322
X4.761Y-2.422
X4.761Y-2.522
X4.761Y-2.622
X4.761Y-2.722
X4.761Y-2.822
X4.761Y-2.922
X4.761Y-3.022
X4.761Y-3.122
X4.761Y-3.222
X4.761Y-3.322
X4.761Y-3.422
X4.761Y-3.522
X4.761Y-3.622
X4.761Y-3.722
X4.761Y-3.822
X4.761Y-3.922
X4.761Y-4.022
X4.761Y-4.122
X4.761Y-4.222
X4.9417Y-2.122
X4.9417Y-2.222
X4.9417Y-2.322
X4.9417Y-2.422
X4.9417Y-2.522
X4.9417Y-2.622
X4.9417Y-2.722
X4.9417Y-2.822
X4.9417Y-2.922
X4.9417Y-3.022
X4.9417Y-3.122
X4.9417Y-3.222
X4.9417Y-3.322
X4.9417Y-3.422
X4.9417Y-3.522
X4.9417Y-3.622
X4.9417Y-3.722
X4.9417Y-3.822
X4.9417Y-3.922
X4.9417Y-4.022
X4.9417Y-4.122
X4.9417Y-4.222
X5.3394Y-2.1244
X5.3394Y-2.2244
X5.3394Y-2.3244
X5.3394Y-2.4244
X5.3394Y-2.5244
X5.3394Y-2.6244
X5.3394Y-2.7244
X5.3394Y-2.8244
X5.3394Y-2.9244
X5.3394Y-3.0244
X5.3394Y-3.1244
X5.3394Y-3.2244
X5.3394Y-3.3244
X5.3394Y-3.4244
X5.3394Y-3.5244
X5.3394Y-3.6244
X5.3394Y-3.7244
X5.3394Y-3.8244
X5.3394Y-3.9244
X5.3394Y-4.0244
X5.3394Y-4.1244
X5.3394Y-4.2244
X5.5201Y-2.1244
X5.5201Y-2.2244
X5.5201Y-2.3244
X5.5201Y-2.4244
X5.5201Y-2.5244
X5.5201Y-2.6244
X5.5201Y-2.7244
X5.5201Y-2.8244
X5.5201Y-2.9244
X5.5201Y-3.0244
X5.5201Y-3.1244
X5.5201Y-3.2244
X5.5201Y-3.3244
X5.5201Y-3.4244
X5.5201Y-3.5244
X5.5201Y-3.6244
X5.5201Y-3.7244
X5.5201Y-3.8244
X5.5201Y-3.9244
X5.5201Y-4.0244
X5.5201Y-4.1244
X5.5201Y-4.2244
T4
X3.3543Y-2.2004
X3.3543Y-2.3004
X3.3543Y-2.4004
X3.3543Y-2.5004
X3.3543Y-2.6004
X3.3543Y-2.7004
X3.3543Y-2.8004
X3.3543Y-2.9004
X3.3543Y-3.0004
X3.3543Y-3.1004
X3.3543Y-3.2004
X3.3543Y-3.3004
X3.3543Y-3.4004
X3.3543Y-3.5004
X3.3543Y-3.6004
X3.3543Y-3.7004
X3.3543Y-3.8004
X3.3543Y-3.9004
X3.3543Y-4.0004
X3.3543Y-4.1004
X3.6043Y-4.0913
X3.7043Y-4.0913
X3.8043Y-4.0913
X4.0543Y-2.2004
X4.0543Y-2.3004
X4.0543Y-2.4004
X4.0543Y-2.5004
X4.0543Y-2.6004
X4.0543Y-2.7004
X4.0543Y-2.8004
X4.0543Y-2.9004
X4.0543Y-3.0004
X4.0543Y-3.1004
X4.0543Y-3.2004
X4.0543Y-3.3004
X4.0543Y-3.4004
X4.0543Y-3.5004
X4.0543Y-3.6004
X4.0543Y-3.7004
X4.0543Y-3.8004
X4.0543Y-3.9004
X4.0543Y-4.0004
X4.0543Y-4.1004
M30
